<?xml version="1.0" ?><svg height="48px" version="1.1" viewBox="0 0 48 48" width="48px" xmlns="http://www.w3.org/2000/svg" xmlns:xlink="http://www.w3.org/1999/xlink"><title/><g fill="none" fill-rule="evenodd" id="arrow-route" stroke="none" stroke-width="1"><path d="M35,6 C29.225216,6 25,10.4095324 25,17.5 L25,32 C25,35.6196765 23.0754155,38 20,38 L19.7930794,37.9959746 C16.9850091,37.8861539 15,35.537804 15,32 L14.999,19 L20.5,19 C20.8993477,19 21.1375434,18.5549273 20.9160251,18.2226499 L12.9160251,6.2226499 C12.7181141,5.92578337 12.2818859,5.92578337 12.0839749,6.2226499 L4.08397485,18.2226499 L4.04343429,18.2953753 C3.89730677,18.6162383 4.12917714,19 4.5,19 L9.999,19 L10,32 C10,38.3923721 14.3088325,43 20,43 C25.8183607,43 30,38.3249536 30,32 L30,17.5 C30,13.2703305 31.7923662,11 35,11 C38.1461887,11 40,13.4554576 40,17.5 L40,31.5 C40,31.7761424 40.2238576,32 40.5,32 L44.5,32 C44.7761424,32 45,31.7761424 45,31.5 L45,17.5 C45,10.2268457 40.6645983,6 35,6 Z M35.2591547,7.00325773 C40.2483903,7.12914298 44,10.8987009 44,17.5 L43.999,31 L40.999,31 L41,17.5 C41,12.9545676 38.7693726,10 35,10 C31.181318,10 29,12.7630028 29,17.5 L29,32 C29,37.7959863 25.2396803,42 20,42 C14.8766581,42 11,37.8545156 11,32 L11,18.5 L10.9919443,18.4101244 C10.9496084,18.1768752 10.7454599,18 10.5,18 L5.434,18 L12.5,7.402 L19.565,18 L14.5,18 C14.2238576,18 14,18.2238576 14,18.5 L14,32 C14,36.1492498 16.499326,39 20,39 C23.6800885,39 26,36.1307367 26,32 L26,17.5 C26,10.9524908 29.7872784,7 35,7 L35.2591547,7.00325773 Z" fill="#000000" fill-rule="nonzero" id="Path" transform="translate(24.499580, 24.500000) rotate(-90.000000) translate(-24.499580, -24.500000) "/><path d="M38.5,2 C36.0147186,2 34,4.01471863 34,6.5 C34,8.98528137 36.0147186,11 38.5,11 C40.9852814,11 43,8.98528137 43,6.5 C43,4.01471863 40.9852814,2 38.5,2 Z M38.5,3 C40.4329966,3 42,4.56700338 42,6.5 C42,8.43299662 40.4329966,10 38.5,10 C36.5670034,10 35,8.43299662 35,6.5 C35,4.56700338 36.5670034,3 38.5,3 Z" fill="#000000" fill-rule="nonzero" id="Oval"/></g></svg>