<?xml version="1.0" encoding="UTF-8"?>
<!DOCTYPE svg PUBLIC "-//W3C//DTD SVG 1.1//EN" "http://www.w3.org/Graphics/SVG/1.1/DTD/svg11.dtd">
<svg xmlns="http://www.w3.org/2000/svg" version="1.1" width="60px" height="60px" style="shape-rendering:geometricPrecision; text-rendering:geometricPrecision; image-rendering:optimizeQuality; fill-rule:evenodd; clip-rule:evenodd" xmlns:xlink="http://www.w3.org/1999/xlink">
<g><path style="opacity:0.774" fill="#fefffe" d="M 11.5,7.5 C 12.8333,7.5 14.1667,7.5 15.5,7.5C 15.8221,11.3504 14.4887,14.517 11.5,17C 7.16378,17.8334 5.16378,16.0001 5.5,11.5C 8.52214,11.6581 10.5221,10.3248 11.5,7.5 Z"/></g>
<g><path style="opacity:0.97" fill="#fefffe" d="M 21.5,11.5 C 32.1667,11.5 42.8333,11.5 53.5,11.5C 53.5,12.8333 53.5,14.1667 53.5,15.5C 42.8333,15.5 32.1667,15.5 21.5,15.5C 21.5,14.1667 21.5,12.8333 21.5,11.5 Z"/></g>
<g><path style="opacity:0.774" fill="#fefffe" d="M 11.5,23.5 C 12.8333,23.5 14.1667,23.5 15.5,23.5C 15.8221,27.3504 14.4887,30.517 11.5,33C 7.16378,33.8334 5.16378,32.0001 5.5,27.5C 8.52214,27.6581 10.5221,26.3248 11.5,23.5 Z"/></g>
<g><path style="opacity:0.97" fill="#fefffe" d="M 21.5,27.5 C 32.1667,27.5 42.8333,27.5 53.5,27.5C 53.5,28.8333 53.5,30.1667 53.5,31.5C 42.8333,31.5 32.1667,31.5 21.5,31.5C 21.5,30.1667 21.5,28.8333 21.5,27.5 Z"/></g>
<g><path style="opacity:0.78" fill="#fefffe" d="M 7.5,39.5 C 17.4874,38.3319 20.154,42.1653 15.5,51C 5.43377,52.4671 2.7671,48.6338 7.5,39.5 Z M 10.5,44.5 C 12.337,44.6395 12.6704,45.3061 11.5,46.5C 10.7025,46.0431 10.3691,45.3764 10.5,44.5 Z"/></g>
<g><path style="opacity:0.97" fill="#fefffe" d="M 21.5,43.5 C 32.1667,43.5 42.8333,43.5 53.5,43.5C 53.5,44.8333 53.5,46.1667 53.5,47.5C 42.8333,47.5 32.1667,47.5 21.5,47.5C 21.5,46.1667 21.5,44.8333 21.5,43.5 Z"/></g>
</svg>
